<?xml version="1.0" encoding="UTF-8"?>
<svg version="1.1" xmlns="http://www.w3.org/2000/svg" width="500" height="500">
<path d="M0 0 C165 0 330 0 500 0 C500 165 500 330 500 500 C335 500 170 500 0 500 C0 335 0 170 0 0 Z " fill="#323682" transform="translate(0,0)"/>
<path d="M0 0 C15.9701174 13.5470651 24.02308427 34.46797382 30.265625 53.921875 C31.72782386 51.22457835 32.60706244 48.87146128 33.125 45.8515625 C33.26824707 45.04992676 33.41149414 44.24829102 33.55908203 43.42236328 C33.70974121 42.55595215 33.86040039 41.68954102 34.015625 40.796875 C35.5865847 32.15890009 37.40770971 23.59955908 39.390625 15.046875 C39.64424805 13.94843262 39.89787109 12.84999023 40.15917969 11.71826172 C41.40264433 6.39698866 42.76214257 1.18406351 44.265625 -4.078125 C56.475625 -4.078125 68.685625 -4.078125 81.265625 -4.078125 C79.01566984 9.42160594 79.01566984 9.42160594 77.88037109 14.49609375 C77.62577621 15.64153152 77.37118134 16.7869693 77.10887146 17.96711731 C76.8383345 19.16906235 76.56779755 20.37100739 76.2890625 21.609375 C76.00261368 22.89426315 75.71616486 24.17915131 75.42103577 25.50297546 C74.65549565 28.93673755 73.88611605 32.36962784 73.11585617 35.80233383 C72.31737093 39.36359505 71.52220068 42.92559616 70.72680664 46.48754883 C69.77913427 50.73062109 68.83117199 54.97362729 67.88154602 59.21626282 C66.15478299 66.93183681 64.4371185 74.64931454 62.73828125 82.37109375 C53.45514675 124.54283149 53.45514675 124.54283149 51.265625 128.921875 C50.72243857 135.20143931 52.35918432 140.32870555 54.390625 146.234375 C54.70829834 147.16628662 55.02597168 148.09819824 55.35327148 149.05834961 C58.09473434 156.86013303 60.97738298 163.63363298 66.890625 169.546875 C72.53118346 171.8448803 78.6689739 172.2553927 84.45703125 170.109375 C89.45832808 166.99841714 91.63294754 162.43523809 93.265625 156.921875 C94.10323336 152.93964554 94.74668165 148.95734234 95.265625 144.921875 C97.905625 144.921875 100.545625 144.921875 103.265625 144.921875 C104.25284455 162.22563989 100.57951381 181.16433342 88.921875 194.62890625 C83.54228426 199.60502769 78.90644393 202.3365035 71.3828125 202.109375 C65.38388538 201.5781047 60.52610962 200.41265609 56.265625 195.921875 C50.15785742 186.76022363 46.89482477 176.45090164 44.515625 165.796875 C44.29519531 164.84039062 44.07476562 163.88390625 43.84765625 162.8984375 C43.31313949 160.57445159 42.78592153 158.24907786 42.265625 155.921875 C40.02057511 158.87186588 38.05649028 161.87227698 36.140625 165.046875 C32.40892561 170.93449316 28.13701115 175.95090345 23.265625 180.921875 C22.60175781 181.62183594 21.93789063 182.32179688 21.25390625 183.04296875 C8.91947484 195.0954703 -9.74267685 201.31861944 -26.734375 201.921875 C-27.87390625 201.9734375 -29.0134375 202.025 -30.1875 202.078125 C-49.95472972 202.56620475 -66.5664518 196.41153715 -81.2578125 183.34375 C-84.59224712 180.08294643 -87.28260975 176.88500238 -89.734375 172.921875 C-90.38019531 171.89320313 -91.02601563 170.86453125 -91.69140625 169.8046875 C-111.73133009 136.89397301 -113.58375186 91.71247358 -104.734375 54.921875 C-98.98856228 32.21058598 -85.77814721 10.85926715 -65.43310547 -1.46118164 C-44.9664073 -13.29460459 -19.40672861 -14.64894998 0 0 Z " fill="#FCFCFD" transform="translate(252.734375,161.078125)"/>
<path d="M0 0 C19.70976877 11.7845121 28.93087492 39.44659669 36 60 C36.32355469 60.83015625 36.64710938 61.6603125 36.98046875 62.515625 C38.57316073 66.93899662 39.21835264 70.23053864 38.24609375 74.8671875 C37.95557129 76.31109863 37.95557129 76.31109863 37.65917969 77.78417969 C37.44165039 78.84540039 37.22412109 79.90662109 37 81 C36.55250342 83.41862842 36.1086927 85.83794081 35.66796875 88.2578125 C30.37517218 116.60415574 30.37517218 116.60415574 26 129 C25.55503174 130.26360352 25.55503174 130.26360352 25.10107422 131.55273438 C12.38209753 167.16840404 12.38209753 167.16840404 -4.32421875 176.265625 C-11.61920114 179.30419618 -18.30598797 180.31817421 -26 178.0625 C-36.9049098 173.22564484 -42.87693802 163.82307843 -47.1953125 153.19433594 C-54.39783011 133.55348999 -54.37349251 111.48502399 -54.37060547 90.86865234 C-54.37496829 87.40021219 -54.41140866 83.93305977 -54.44921875 80.46484375 C-54.57170866 55.9818199 -53.27463757 24.29514345 -35.75 5.125 C-25.7279391 -3.95612505 -12.26939893 -6.31646834 0 0 Z " fill="#2F3377" transform="translate(239,171)"/>
</svg>
